<!-- Generated by IcoMoon.io -->
<svg version="1.1" xmlns="http://www.w3.org/2000/svg" width="32" height="32" viewBox="0 0 32 32">
<title>date</title>
<path d="M32 4.002v-4h-4v2h-24v-2h-4v4h2v24h-2v4h4v-2h24v2h4v-4h-2v-24zM28 28.002h-24v-24h24z"></path>
<path d="M32 2.252h-7.908v-2.25h-1.876v2.25h-12.432v-2.25h-1.876v2.25h-7.908v29.75l32-0.14v-29.61zM1.876 4.21h6.032v2.282h1.876v-2.282h12.432v2.282h1.874v-2.282h6.034v5.076h-28.248zM30.126 29.894h-28.25v-18.65h28.25zM10.030 19.512h-6v-6h6v6zM5.23 14.712v3.6h3.6v-3.6zM19.014 19.512h-6v-6h6v6zM14.214 14.712v3.6h3.6v-3.6zM28 19.512h-6v-6h6v6zM23.2 14.712v3.6h3.6v-3.6zM22 21.774h6v6h-6v-6z"></path>
</svg>
