<!-- Generated by IcoMoon.io -->
<svg version="1.1" xmlns="http://www.w3.org/2000/svg" width="32" height="32" viewBox="0 0 32 32">
<title>radio</title>
<path d="M32 4.002v-4h-4v2h-24v-2h-4v4h2v24h-2v4h4v-2h24v2h4v-4h-2v-24zM28 28.002h-24v-24h24z"></path>
<path d="M16.001 24.002c-4.416-0.005-7.995-3.584-8-8v-0.001c0.006-4.416 3.584-7.994 8-8h0.001c4.416 0.005 7.995 3.584 8 8v0.001c-0.005 4.417-3.584 7.996-8 8h-0zM16.001 10.668c-2.946 0-5.334 2.388-5.334 5.334v0c0 2.946 2.388 5.334 5.334 5.334v0c2.946 0 5.334-2.388 5.334-5.334v0c0-2.946-2.388-5.334-5.334-5.334v0z"></path>
</svg>
